<svg width="93" height="93" viewBox="0 0 93 93" fill="none" xmlns="http://www.w3.org/2000/svg">
<g filter="url(#filter0_d)">
<circle cx="44.5" cy="44.5" r="26.5" fill="white"/>
</g>
<path d="M56 36C55.0424 36.6755 53.9821 37.1921 52.86 37.53C52.2577 36.8375 51.4573 36.3467 50.567 36.1239C49.6767 35.9011 48.7395 35.9572 47.8821 36.2844C47.0247 36.6117 46.2884 37.1944 45.773 37.9537C45.2575 38.713 44.9877 39.6123 45 40.53V41.53C43.2426 41.5756 41.5013 41.1858 39.931 40.3954C38.3607 39.6051 37.0103 38.4386 36 37C36 37 32 46 41 50C38.9405 51.398 36.4872 52.0989 34 52C43 57 54 52 54 40.5C53.9991 40.2214 53.9723 39.9436 53.92 39.67C54.9406 38.6635 55.6608 37.3927 56 36V36Z" stroke="#9D90FC" stroke-width="2" stroke-linecap="round" stroke-linejoin="round"/>
<defs>
<filter id="filter0_d" x="0" y="0" width="93" height="93" filterUnits="userSpaceOnUse" color-interpolation-filters="sRGB">
<feFlood flood-opacity="0" result="BackgroundImageFix"/>
<feColorMatrix in="SourceAlpha" type="matrix" values="0 0 0 0 0 0 0 0 0 0 0 0 0 0 0 0 0 0 127 0" result="hardAlpha"/>
<feOffset dx="2" dy="2"/>
<feGaussianBlur stdDeviation="10"/>
<feComposite in2="hardAlpha" operator="out"/>
<feColorMatrix type="matrix" values="0 0 0 0 0 0 0 0 0 0 0 0 0 0 0 0 0 0 0.05 0"/>
<feBlend mode="normal" in2="BackgroundImageFix" result="effect1_dropShadow"/>
<feBlend mode="normal" in="SourceGraphic" in2="effect1_dropShadow" result="shape"/>
</filter>
</defs>
</svg>
