<svg width="203" height="114" viewBox="0 0 203 114" fill="none" xmlns="http://www.w3.org/2000/svg">
<g filter="url(#filter0_i)">
<circle cx="42.4686" cy="70.6987" r="42.4686" fill="#302C47"/>
<circle cx="107.87" cy="42.6694" r="42.4686" fill="#302C47"/>
<circle cx="159.682" cy="70.6987" r="42.4686" fill="#302C47"/>
<rect x="38.2217" y="53.7113" width="125.707" height="59.4561" fill="#302C47"/>
<path d="M81.7587 75.7125H74.8608L73.7194 79.0126H70.0719L76.2999 61.6684H80.3444L86.5724 79.0126H82.9001L81.7587 75.7125ZM80.8158 72.9334L78.3097 65.6881L75.8036 72.9334H80.8158ZM96.5179 65.0678C98.1555 65.0678 99.4789 65.5888 100.488 66.631C101.497 67.6566 102.002 69.0957 102.002 70.9484V79.0126H98.5277V71.4199C98.5277 70.3281 98.2548 69.4927 97.7089 68.9138C97.163 68.3183 96.4186 68.0205 95.4757 68.0205C94.5163 68.0205 93.7554 68.3183 93.193 68.9138C92.6471 69.4927 92.3741 70.3281 92.3741 71.4199V79.0126H88.9004V65.2663H92.3741V66.9784C92.8373 66.3829 93.4246 65.9197 94.1359 65.5888C94.8637 65.2415 95.6577 65.0678 96.5179 65.0678ZM110.689 65.043C111.715 65.043 112.616 65.2497 113.394 65.6633C114.171 66.0603 114.783 66.5814 115.23 67.2265V65.2663H118.729V79.1118C118.729 80.3855 118.472 81.5187 117.959 82.5112C117.447 83.5202 116.677 84.3142 115.652 84.8932C114.626 85.4887 113.386 85.7865 111.93 85.7865C109.978 85.7865 108.373 85.3316 107.116 84.4218C105.876 83.512 105.173 82.2713 105.007 80.6998H108.456C108.638 81.3284 109.027 81.8247 109.622 82.1886C110.234 82.5691 110.971 82.7593 111.831 82.7593C112.84 82.7593 113.659 82.4533 114.287 81.8412C114.916 81.2457 115.23 80.3359 115.23 79.1118V76.9779C114.783 77.6231 114.163 78.1607 113.369 78.5908C112.592 79.0208 111.698 79.2359 110.689 79.2359C109.531 79.2359 108.473 78.9381 107.513 78.3426C106.554 77.7471 105.793 76.9118 105.23 75.8365C104.685 74.7448 104.412 73.4959 104.412 72.0898C104.412 70.7003 104.685 69.4679 105.23 68.3927C105.793 67.3175 106.546 66.4904 107.488 65.9114C108.448 65.3324 109.515 65.043 110.689 65.043ZM115.23 72.1394C115.23 71.2958 115.065 70.5762 114.734 69.9807C114.403 69.3687 113.956 68.9055 113.394 68.5912C112.831 68.2604 112.228 68.0949 111.583 68.0949C110.937 68.0949 110.342 68.2521 109.796 68.5664C109.25 68.8807 108.804 69.3438 108.456 69.9559C108.125 70.5514 107.96 71.2627 107.96 72.0898C107.96 72.9169 108.125 73.6447 108.456 74.2733C108.804 74.8854 109.25 75.3568 109.796 75.6877C110.358 76.0185 110.954 76.1839 111.583 76.1839C112.228 76.1839 112.831 76.0268 113.394 75.7125C113.956 75.3816 114.403 74.9185 114.734 74.323C115.065 73.7109 115.23 72.9831 115.23 72.1394ZM125.595 67.4002C126.042 66.6723 126.621 66.1016 127.332 65.6881C128.06 65.2745 128.887 65.0678 129.813 65.0678V68.7153H128.895C127.804 68.7153 126.976 68.9717 126.414 69.4845C125.868 69.9973 125.595 70.8905 125.595 72.1642V79.0126H122.121V65.2663H125.595V67.4002ZM145.304 65.2663L136.793 85.5135H133.096L136.074 78.6652L130.565 65.2663H134.461L138.009 74.8688L141.607 65.2663H145.304Z" fill="white"/>
</g>
<defs>
<filter id="filter0_i" x="0" y="0.200806" width="203.849" height="116.364" filterUnits="userSpaceOnUse" color-interpolation-filters="sRGB">
<feFlood flood-opacity="0" result="BackgroundImageFix"/>
<feBlend mode="normal" in="SourceGraphic" in2="BackgroundImageFix" result="shape"/>
<feColorMatrix in="SourceAlpha" type="matrix" values="0 0 0 0 0 0 0 0 0 0 0 0 0 0 0 0 0 0 127 0" result="hardAlpha"/>
<feOffset dx="1.69874" dy="3.39749"/>
<feGaussianBlur stdDeviation="8.49372"/>
<feComposite in2="hardAlpha" operator="arithmetic" k2="-1" k3="1"/>
<feColorMatrix type="matrix" values="0 0 0 0 0.468962 0 0 0 0 0.338642 0 0 0 0 0.516975 0 0 0 1 0"/>
<feBlend mode="normal" in2="shape" result="effect1_innerShadow"/>
</filter>
</defs>
</svg>
