<svg width="93" height="93" viewBox="0 0 93 93" fill="none" xmlns="http://www.w3.org/2000/svg">
<g filter="url(#filter0_d)">
<circle cx="44.5" cy="44.5" r="26.5" fill="white"/>
</g>
<path d="M35 36H41C42.0609 36 43.0783 36.4214 43.8284 37.1716C44.5786 37.9217 45 38.9391 45 40V54C45 53.2044 44.6839 52.4413 44.1213 51.8787C43.5587 51.3161 42.7956 51 42 51H35V36Z" stroke="#8F00FF" stroke-width="2" stroke-linecap="round" stroke-linejoin="round"/>
<path d="M55 36H49C47.9391 36 46.9217 36.4214 46.1716 37.1716C45.4214 37.9217 45 38.9391 45 40V54C45 53.2044 45.3161 52.4413 45.8787 51.8787C46.4413 51.3161 47.2044 51 48 51H55V36Z" stroke="#8F00FF" stroke-width="2" stroke-linecap="round" stroke-linejoin="round"/>
<defs>
<filter id="filter0_d" x="0" y="0" width="93" height="93" filterUnits="userSpaceOnUse" color-interpolation-filters="sRGB">
<feFlood flood-opacity="0" result="BackgroundImageFix"/>
<feColorMatrix in="SourceAlpha" type="matrix" values="0 0 0 0 0 0 0 0 0 0 0 0 0 0 0 0 0 0 127 0" result="hardAlpha"/>
<feOffset dx="2" dy="2"/>
<feGaussianBlur stdDeviation="10"/>
<feComposite in2="hardAlpha" operator="out"/>
<feColorMatrix type="matrix" values="0 0 0 0 0 0 0 0 0 0 0 0 0 0 0 0 0 0 0.05 0"/>
<feBlend mode="normal" in2="BackgroundImageFix" result="effect1_dropShadow"/>
<feBlend mode="normal" in="SourceGraphic" in2="effect1_dropShadow" result="shape"/>
</filter>
</defs>
</svg>
