<svg width="203" height="114" viewBox="0 0 203 114" fill="none" xmlns="http://www.w3.org/2000/svg">
<g filter="url(#filter0_i)">
<circle cx="42.5439" cy="70.6987" r="42.4686" fill="#302C47"/>
<circle cx="107.946" cy="42.6694" r="42.4686" fill="#302C47"/>
<circle cx="159.757" cy="70.6987" r="42.4686" fill="#302C47"/>
<rect x="38.2971" y="53.7113" width="125.707" height="59.4561" fill="#302C47"/>
<path d="M47.6592 70.3281C47.6592 68.6243 48.0397 67.1024 48.8006 65.7625C49.5781 64.4061 50.6285 63.3557 51.9518 62.6113C53.2917 61.8504 54.7888 61.4699 56.443 61.4699C58.3784 61.4699 60.0739 61.9662 61.5296 62.9587C62.9853 63.9512 64.0026 65.3242 64.5816 67.0776H60.5867C60.1897 66.2505 59.6273 65.6302 58.8994 65.2166C58.1881 64.8031 57.361 64.5963 56.4181 64.5963C55.4091 64.5963 54.5076 64.8362 53.7135 65.3159C52.9361 65.7791 52.324 66.4407 51.8774 67.3009C51.4473 68.1611 51.2323 69.1702 51.2323 70.3281C51.2323 71.4695 51.4473 72.4785 51.8774 73.3553C52.324 74.2154 52.9361 74.8854 53.7135 75.3651C54.5076 75.8283 55.4091 76.0598 56.4181 76.0598C57.361 76.0598 58.1881 75.8531 58.8994 75.4395C59.6273 75.0094 60.1897 74.3808 60.5867 73.5538H64.5816C64.0026 75.3237 62.9853 76.705 61.5296 77.6975C60.0904 78.6735 58.3949 79.1615 56.443 79.1615C54.7888 79.1615 53.2917 78.7893 51.9518 78.0449C50.6285 77.2839 49.5781 76.2335 48.8006 74.8936C48.0397 73.5538 47.6592 72.0319 47.6592 70.3281ZM75.2902 65.0678C76.3324 65.0678 77.2587 65.2994 78.0693 65.7625C78.8798 66.2092 79.5084 66.8791 79.955 67.7724C80.4182 68.6491 80.6498 69.7078 80.6498 70.9484V79.0126H77.176V71.4199C77.176 70.3281 76.9031 69.4927 76.3572 68.9138C75.8113 68.3183 75.0669 68.0205 74.124 68.0205C73.1646 68.0205 72.4037 68.3183 71.8412 68.9138C71.2954 69.4927 71.0224 70.3281 71.0224 71.4199V79.0126H67.5486V60.6511H71.0224V66.9784C71.4691 66.3829 72.0646 65.9197 72.8089 65.5888C73.5533 65.2415 74.3804 65.0678 75.2902 65.0678ZM96.7318 71.8417C96.7318 72.3379 96.6987 72.7846 96.6325 73.1816H86.5834C86.6661 74.1741 87.0134 74.9515 87.6255 75.514C88.2375 76.0764 88.9902 76.3576 89.8835 76.3576C91.1737 76.3576 92.0918 75.8034 92.6377 74.6951H96.3844C95.9874 76.0185 95.2265 77.1103 94.1016 77.9704C92.9768 78.8141 91.5955 79.2359 89.9579 79.2359C88.6345 79.2359 87.4435 78.9464 86.3848 78.3674C85.3427 77.7719 84.5239 76.9366 83.9284 75.8613C83.3494 74.7861 83.0599 73.5455 83.0599 72.1394C83.0599 70.7168 83.3494 69.4679 83.9284 68.3927C84.5073 67.3175 85.3179 66.4904 86.36 65.9114C87.4022 65.3324 88.6015 65.043 89.9579 65.043C91.2647 65.043 92.4309 65.3242 93.4565 65.8866C94.4986 66.449 95.3009 67.2513 95.8633 68.2934C96.4423 69.319 96.7318 70.5018 96.7318 71.8417ZM93.1339 70.8492C93.1174 69.9559 92.7948 69.2446 92.1662 68.7153C91.5376 68.1694 90.7684 67.8964 89.8586 67.8964C88.9985 67.8964 88.2706 68.1611 87.6751 68.6904C87.0961 69.2032 86.7405 69.9228 86.6082 70.8492H93.1339ZM112.046 71.8417C112.046 72.3379 112.013 72.7846 111.947 73.1816H101.898C101.98 74.1741 102.328 74.9515 102.94 75.514C103.552 76.0764 104.304 76.3576 105.198 76.3576C106.488 76.3576 107.406 75.8034 107.952 74.6951H111.699C111.302 76.0185 110.541 77.1103 109.416 77.9704C108.291 78.8141 106.91 79.2359 105.272 79.2359C103.949 79.2359 102.758 78.9464 101.699 78.3674C100.657 77.7719 99.838 76.9366 99.2425 75.8613C98.6636 74.7861 98.3741 73.5455 98.3741 72.1394C98.3741 70.7168 98.6636 69.4679 99.2425 68.3927C99.8215 67.3175 100.632 66.4904 101.674 65.9114C102.716 65.3324 103.916 65.043 105.272 65.043C106.579 65.043 107.745 65.3242 108.771 65.8866C109.813 66.449 110.615 67.2513 111.178 68.2934C111.756 69.319 112.046 70.5018 112.046 71.8417ZM108.448 70.8492C108.432 69.9559 108.109 69.2446 107.48 68.7153C106.852 68.1694 106.083 67.8964 105.173 67.8964C104.313 67.8964 103.585 68.1611 102.989 68.6904C102.41 69.2032 102.055 69.9228 101.922 70.8492H108.448ZM118.055 67.4002C118.502 66.6723 119.081 66.1016 119.792 65.6881C120.52 65.2745 121.347 65.0678 122.273 65.0678V68.7153H121.355C120.264 68.7153 119.437 68.9717 118.874 69.4845C118.328 69.9973 118.055 70.8905 118.055 72.1642V79.0126H114.582V65.2663H118.055V67.4002ZM130.916 68.1197H128.509V79.0126H124.985V68.1197H123.422V65.2663H124.985V64.5715C124.985 62.8842 125.465 61.6436 126.425 60.8496C127.384 60.0556 128.831 59.6834 130.767 59.733V62.6609C129.923 62.6444 129.336 62.785 129.005 63.0827C128.674 63.3805 128.509 63.9181 128.509 64.6956V65.2663H130.916V68.1197ZM146.144 65.2663V79.0126H142.645V77.2757C142.199 77.8712 141.612 78.3426 140.884 78.69C140.172 79.0208 139.395 79.1863 138.551 79.1863C137.476 79.1863 136.525 78.9629 135.698 78.5163C134.871 78.0531 134.217 77.3832 133.738 76.5065C133.274 75.6132 133.043 74.5545 133.043 73.3304V65.2663H136.517V72.8342C136.517 73.9259 136.79 74.7696 137.335 75.3651C137.881 75.9441 138.626 76.2335 139.569 76.2335C140.528 76.2335 141.281 75.9441 141.827 75.3651C142.372 74.7696 142.645 73.9259 142.645 72.8342V65.2663H146.144ZM153.045 60.6511V79.0126H149.571V60.6511H153.045Z" fill="white"/>
</g>
<defs>
<filter id="filter0_i" x="0.0753174" y="0.200806" width="203.849" height="116.364" filterUnits="userSpaceOnUse" color-interpolation-filters="sRGB">
<feFlood flood-opacity="0" result="BackgroundImageFix"/>
<feBlend mode="normal" in="SourceGraphic" in2="BackgroundImageFix" result="shape"/>
<feColorMatrix in="SourceAlpha" type="matrix" values="0 0 0 0 0 0 0 0 0 0 0 0 0 0 0 0 0 0 127 0" result="hardAlpha"/>
<feOffset dx="1.69874" dy="3.39749"/>
<feGaussianBlur stdDeviation="8.49372"/>
<feComposite in2="hardAlpha" operator="arithmetic" k2="-1" k3="1"/>
<feColorMatrix type="matrix" values="0 0 0 0 0.468962 0 0 0 0 0.338642 0 0 0 0 0.516975 0 0 0 1 0"/>
<feBlend mode="normal" in2="shape" result="effect1_innerShadow"/>
</filter>
</defs>
</svg>
