<svg width="203" height="114" viewBox="0 0 203 114" fill="none" xmlns="http://www.w3.org/2000/svg">
<g filter="url(#filter0_i)">
<circle cx="42.4686" cy="70.6737" r="42.4686" fill="#302C47"/>
<circle cx="107.87" cy="42.6444" r="42.4686" fill="#302C47"/>
<circle cx="159.682" cy="70.6737" r="42.4686" fill="#302C47"/>
<rect x="38.2218" y="53.6862" width="125.707" height="59.4561" fill="#302C47"/>
<path d="M85.6375 61.6681V64.4719H78.417V68.9134H83.9503V71.6676H78.417V78.9874H74.9432V61.6681H85.6375ZM91.5746 67.375C92.0212 66.6472 92.6002 66.0765 93.3115 65.6629C94.0393 65.2494 94.8664 65.0426 95.7928 65.0426V68.6901H94.8747C93.7829 68.6901 92.9558 68.9465 92.3934 69.4593C91.8475 69.9721 91.5746 70.8654 91.5746 72.1391V78.9874H88.1008V65.2411H91.5746V67.375ZM110.911 71.8165C110.911 72.3128 110.878 72.7594 110.812 73.1564H100.763C100.845 74.1489 101.193 74.9264 101.805 75.4888C102.417 76.0512 103.17 76.3325 104.063 76.3325C105.353 76.3325 106.271 75.7783 106.817 74.67H110.564C110.167 75.9933 109.406 77.0851 108.281 77.9453C107.156 78.7889 105.775 79.2107 104.137 79.2107C102.814 79.2107 101.623 78.9213 100.564 78.3423C99.522 77.7468 98.7032 76.9114 98.1077 75.8362C97.5288 74.761 97.2393 73.5203 97.2393 72.1143C97.2393 70.6917 97.5288 69.4428 98.1077 68.3675C98.6867 67.2923 99.4972 66.4652 100.539 65.8863C101.582 65.3073 102.781 65.0178 104.137 65.0178C105.444 65.0178 106.61 65.299 107.636 65.8614C108.678 66.4239 109.48 67.2262 110.043 68.2683C110.622 69.2939 110.911 70.4766 110.911 71.8165ZM107.313 70.824C107.297 69.9307 106.974 69.2194 106.346 68.6901C105.717 68.1442 104.948 67.8713 104.038 67.8713C103.178 67.8713 102.45 68.136 101.854 68.6653C101.275 69.1781 100.92 69.8977 100.787 70.824H107.313ZM118.707 79.2107C117.582 79.2107 116.573 79.0122 115.68 78.6152C114.787 78.2017 114.075 77.6475 113.546 76.9528C113.033 76.258 112.752 75.4888 112.702 74.6452H116.201C116.267 75.1745 116.523 75.6129 116.97 75.9603C117.433 76.3076 118.004 76.4813 118.682 76.4813C119.344 76.4813 119.857 76.349 120.221 76.0843C120.601 75.8197 120.791 75.4805 120.791 75.067C120.791 74.6204 120.56 74.2895 120.097 74.0745C119.65 73.8429 118.93 73.5948 117.938 73.3301C116.912 73.082 116.069 72.8256 115.407 72.5609C114.762 72.2962 114.199 71.891 113.72 71.3451C113.256 70.7992 113.025 70.0631 113.025 69.1367C113.025 68.3758 113.24 67.6811 113.67 67.0525C114.117 66.4239 114.745 65.9276 115.556 65.5637C116.383 65.1998 117.351 65.0178 118.459 65.0178C120.097 65.0178 121.403 65.4314 122.379 66.2585C123.355 67.069 123.893 68.169 123.992 69.5586H120.667C120.618 69.0127 120.386 68.5826 119.972 68.2683C119.575 67.9375 119.038 67.772 118.36 67.772C117.731 67.772 117.243 67.8878 116.896 68.1194C116.565 68.351 116.399 68.6736 116.399 69.0871C116.399 69.5503 116.631 69.9059 117.094 70.1541C117.557 70.3857 118.277 70.6255 119.253 70.8736C120.245 71.1218 121.064 71.3782 121.709 71.6428C122.354 71.9075 122.909 72.3211 123.372 72.8835C123.852 73.4294 124.1 74.1572 124.116 75.067C124.116 75.861 123.893 76.5723 123.446 77.2009C123.016 77.8295 122.388 78.3258 121.56 78.6897C120.75 79.0371 119.799 79.2107 118.707 79.2107ZM134.709 65.0426C135.751 65.0426 136.678 65.2742 137.488 65.7374C138.299 66.184 138.928 66.854 139.374 67.7472C139.837 68.6239 140.069 69.6826 140.069 70.9233V78.9874H136.595V71.3947C136.595 70.3029 136.322 69.4676 135.776 68.8886C135.23 68.2931 134.486 67.9954 133.543 67.9954C132.584 67.9954 131.823 68.2931 131.26 68.8886C130.714 69.4676 130.442 70.3029 130.442 71.3947V78.9874H126.968V60.6259H130.442V66.9532C130.888 66.3577 131.484 65.8945 132.228 65.5637C132.972 65.2163 133.8 65.0426 134.709 65.0426Z" fill="white"/>
</g>
<defs>
<filter id="filter0_i" x="0" y="0.175781" width="203.849" height="116.364" filterUnits="userSpaceOnUse" color-interpolation-filters="sRGB">
<feFlood flood-opacity="0" result="BackgroundImageFix"/>
<feBlend mode="normal" in="SourceGraphic" in2="BackgroundImageFix" result="shape"/>
<feColorMatrix in="SourceAlpha" type="matrix" values="0 0 0 0 0 0 0 0 0 0 0 0 0 0 0 0 0 0 127 0" result="hardAlpha"/>
<feOffset dx="1.69874" dy="3.39749"/>
<feGaussianBlur stdDeviation="8.49372"/>
<feComposite in2="hardAlpha" operator="arithmetic" k2="-1" k3="1"/>
<feColorMatrix type="matrix" values="0 0 0 0 0.468962 0 0 0 0 0.338642 0 0 0 0 0.516975 0 0 0 1 0"/>
<feBlend mode="normal" in2="shape" result="effect1_innerShadow"/>
</filter>
</defs>
</svg>
