<svg width="203" height="114" viewBox="0 0 203 114" fill="none" xmlns="http://www.w3.org/2000/svg">
<g filter="url(#filter0_i)">
<circle cx="42.4686" cy="70.5941" r="42.4686" fill="#302C47"/>
<circle cx="107.87" cy="42.5648" r="42.4686" fill="#302C47"/>
<circle cx="159.682" cy="70.5941" r="42.4686" fill="#302C47"/>
<rect x="38.2217" y="53.6067" width="125.707" height="59.4561" fill="#302C47"/>
<path d="M81.4804 61.5885V78.9078H78.0066V71.5384H70.5876V78.9078H67.1138V61.5885H70.5876V68.7098H78.0066V61.5885H81.4804ZM84.0062 71.9851C84.0062 70.5955 84.2792 69.3632 84.8251 68.288C85.3875 67.2127 86.1401 66.3856 87.083 65.8067C88.0425 65.2277 89.1094 64.9382 90.2839 64.9382C91.3095 64.9382 92.2027 65.145 92.9637 65.5585C93.7411 65.9721 94.3615 66.4932 94.8246 67.1218V65.1615H98.3232V78.9078H94.8246V76.898C94.378 77.5431 93.7577 78.0807 92.9637 78.5108C92.1862 78.9244 91.2847 79.1312 90.2591 79.1312C89.1011 79.1312 88.0425 78.8334 87.083 78.2379C86.1401 77.6424 85.3875 76.807 84.8251 75.7318C84.2792 74.64 84.0062 73.3911 84.0062 71.9851ZM94.8246 72.0347C94.8246 71.1911 94.6592 70.4715 94.3284 69.876C93.9975 69.2639 93.5509 68.8008 92.9885 68.4865C92.4261 68.1556 91.8223 67.9902 91.1771 67.9902C90.532 67.9902 89.9365 68.1473 89.3906 68.4616C88.8447 68.7759 88.3981 69.2391 88.0507 69.8512C87.7199 70.4467 87.5545 71.158 87.5545 71.9851C87.5545 72.8122 87.7199 73.54 88.0507 74.1686C88.3981 74.7806 88.8447 75.2521 89.3906 75.5829C89.953 75.9138 90.5486 76.0792 91.1771 76.0792C91.8223 76.0792 92.4261 75.922 92.9885 75.6077C93.5509 75.2769 93.9975 74.8137 94.3284 74.2182C94.6592 73.6062 94.8246 72.8783 94.8246 72.0347ZM105.19 67.1466C105.636 66.518 106.248 65.9969 107.026 65.5834C107.82 65.1533 108.721 64.9382 109.731 64.9382C110.905 64.9382 111.964 65.2277 112.907 65.8067C113.866 66.3856 114.619 67.2127 115.165 68.288C115.727 69.3466 116.008 70.579 116.008 71.9851C116.008 73.3911 115.727 74.64 115.165 75.7318C114.619 76.807 113.866 77.6424 112.907 78.2379C111.964 78.8334 110.905 79.1312 109.731 79.1312C108.721 79.1312 107.828 78.9244 107.051 78.5108C106.29 78.0973 105.67 77.5762 105.19 76.9476V85.4584H101.716V65.1615H105.19V67.1466ZM112.46 71.9851C112.46 71.158 112.286 70.4467 111.939 69.8512C111.608 69.2391 111.161 68.7759 110.599 68.4616C110.053 68.1473 109.458 67.9902 108.812 67.9902C108.184 67.9902 107.588 68.1556 107.026 68.4865C106.48 68.8008 106.033 69.2639 105.686 69.876C105.355 70.488 105.19 71.2076 105.19 72.0347C105.19 72.8618 105.355 73.5814 105.686 74.1934C106.033 74.8055 106.48 75.2769 107.026 75.6077C107.588 75.922 108.184 76.0792 108.812 76.0792C109.458 76.0792 110.053 75.9138 110.599 75.5829C111.161 75.2521 111.608 74.7806 111.939 74.1686C112.286 73.5565 112.46 72.8287 112.46 71.9851ZM122.006 67.1466C122.453 66.518 123.065 65.9969 123.842 65.5834C124.636 65.1533 125.538 64.9382 126.547 64.9382C127.722 64.9382 128.78 65.2277 129.723 65.8067C130.683 66.3856 131.435 67.2127 131.981 68.288C132.543 69.3466 132.825 70.579 132.825 71.9851C132.825 73.3911 132.543 74.64 131.981 75.7318C131.435 76.807 130.683 77.6424 129.723 78.2379C128.78 78.8334 127.722 79.1312 126.547 79.1312C125.538 79.1312 124.645 78.9244 123.867 78.5108C123.106 78.0973 122.486 77.5762 122.006 76.9476V85.4584H118.532V65.1615H122.006V67.1466ZM129.276 71.9851C129.276 71.158 129.103 70.4467 128.755 69.8512C128.425 69.2391 127.978 68.7759 127.415 68.4616C126.87 68.1473 126.274 67.9902 125.629 67.9902C125 67.9902 124.405 68.1556 123.842 68.4865C123.297 68.8008 122.85 69.2639 122.503 69.876C122.172 70.488 122.006 71.2076 122.006 72.0347C122.006 72.8618 122.172 73.5814 122.503 74.1934C122.85 74.8055 123.297 75.2769 123.842 75.6077C124.405 75.922 125 76.0792 125.629 76.0792C126.274 76.0792 126.87 75.9138 127.415 75.5829C127.978 75.2521 128.425 74.7806 128.755 74.1686C129.103 73.5565 129.276 72.8287 129.276 71.9851ZM148.5 65.1615L139.989 85.4088H136.292L139.269 78.5605L133.761 65.1615H137.657L141.205 74.7641L144.803 65.1615H148.5Z" fill="white"/>
</g>
<defs>
<filter id="filter0_i" x="0" y="0.0961914" width="203.849" height="116.364" filterUnits="userSpaceOnUse" color-interpolation-filters="sRGB">
<feFlood flood-opacity="0" result="BackgroundImageFix"/>
<feBlend mode="normal" in="SourceGraphic" in2="BackgroundImageFix" result="shape"/>
<feColorMatrix in="SourceAlpha" type="matrix" values="0 0 0 0 0 0 0 0 0 0 0 0 0 0 0 0 0 0 127 0" result="hardAlpha"/>
<feOffset dx="1.69874" dy="3.39749"/>
<feGaussianBlur stdDeviation="8.49372"/>
<feComposite in2="hardAlpha" operator="arithmetic" k2="-1" k3="1"/>
<feColorMatrix type="matrix" values="0 0 0 0 0.468962 0 0 0 0 0.338642 0 0 0 0 0.516975 0 0 0 1 0"/>
<feBlend mode="normal" in2="shape" result="effect1_innerShadow"/>
</filter>
</defs>
</svg>
