<svg width="93" height="93" viewBox="0 0 93 93" fill="none" xmlns="http://www.w3.org/2000/svg">
<g filter="url(#filter0_d)">
<circle cx="44.5" cy="44.5" r="26.5" fill="white"/>
</g>
<path fill-rule="evenodd" clip-rule="evenodd" d="M45.4998 30.766C36.8875 30.766 30.0145 37.1965 30.0145 45C30.0145 52.8035 36.8875 59.234 45.4998 59.234C54.1121 59.234 60.9851 52.8035 60.9851 45C60.9851 37.1965 54.1121 30.766 45.4998 30.766ZM28.4851 45C28.4851 36.235 36.1629 29.234 45.4998 29.234C54.8368 29.234 62.5145 36.235 62.5145 45C62.5145 53.765 54.8368 60.766 45.4998 60.766C36.1629 60.766 28.4851 53.765 28.4851 45Z" fill="#8F00FF"/>
<path fill-rule="evenodd" clip-rule="evenodd" d="M42.2501 39.734C42.6724 39.734 43.0148 40.077 43.0148 40.5V49.5C43.0148 49.923 42.6724 50.266 42.2501 50.266C41.8277 50.266 41.4854 49.923 41.4854 49.5V40.5C41.4854 40.077 41.8277 39.734 42.2501 39.734Z" fill="#8F00FF"/>
<path fill-rule="evenodd" clip-rule="evenodd" d="M48.7498 39.734C49.1721 39.734 49.5145 40.077 49.5145 40.5V49.5C49.5145 49.923 49.1721 50.266 48.7498 50.266C48.3275 50.266 47.9851 49.923 47.9851 49.5V40.5C47.9851 40.077 48.3275 39.734 48.7498 39.734Z" fill="#8F00FF"/>
<defs>
<filter id="filter0_d" x="0" y="0" width="93" height="93" filterUnits="userSpaceOnUse" color-interpolation-filters="sRGB">
<feFlood flood-opacity="0" result="BackgroundImageFix"/>
<feColorMatrix in="SourceAlpha" type="matrix" values="0 0 0 0 0 0 0 0 0 0 0 0 0 0 0 0 0 0 127 0" result="hardAlpha"/>
<feOffset dx="2" dy="2"/>
<feGaussianBlur stdDeviation="10"/>
<feComposite in2="hardAlpha" operator="out"/>
<feColorMatrix type="matrix" values="0 0 0 0 0 0 0 0 0 0 0 0 0 0 0 0 0 0 0.05 0"/>
<feBlend mode="normal" in2="BackgroundImageFix" result="effect1_dropShadow"/>
<feBlend mode="normal" in="SourceGraphic" in2="effect1_dropShadow" result="shape"/>
</filter>
</defs>
</svg>
