<svg width="203" height="114" viewBox="0 0 203 114" fill="none" xmlns="http://www.w3.org/2000/svg">
<g filter="url(#filter0_i)">
<circle cx="43.1883" cy="70.6737" r="42.4686" fill="#302C47"/>
<circle cx="108.59" cy="42.6444" r="42.4686" fill="#302C47"/>
<circle cx="160.402" cy="70.6737" r="42.4686" fill="#302C47"/>
<rect x="38.9414" y="53.6862" width="125.707" height="59.4561" fill="#302C47"/>
<path d="M91.4806 79.1611C90.273 79.1611 89.1813 78.9543 88.2053 78.5408C87.2459 78.1272 86.4849 77.5317 85.9225 76.7543C85.3601 75.9768 85.0706 75.0587 85.0541 74.0001H88.776C88.8256 74.7114 89.0738 75.2738 89.5204 75.6873C89.9836 76.1009 90.6121 76.3076 91.4062 76.3076C92.2167 76.3076 92.8536 76.1174 93.3167 75.7369C93.7799 75.3399 94.0115 74.8271 94.0115 74.1986C94.0115 73.6858 93.8544 73.2639 93.5401 72.9331C93.2258 72.6023 92.8288 72.3459 92.349 72.1639C91.8859 71.9654 91.2407 71.7504 90.4136 71.5188C89.2888 71.1879 88.3707 70.8654 87.6594 70.5511C86.9647 70.2202 86.3609 69.7322 85.8481 69.0871C85.3518 68.4254 85.1037 67.5487 85.1037 66.457C85.1037 65.4314 85.3601 64.5381 85.8729 63.7772C86.3857 63.0162 87.1053 62.4373 88.0316 62.0403C88.958 61.6267 90.0166 61.42 91.2077 61.42C92.9942 61.42 94.4416 61.8583 95.5499 62.735C96.6747 63.5952 97.2951 64.8028 97.4109 66.3577H93.5897C93.5566 65.7622 93.3002 65.2742 92.8205 64.8937C92.3573 64.4967 91.737 64.2982 90.9595 64.2982C90.2813 64.2982 89.7354 64.4719 89.3219 64.8193C88.9249 65.1667 88.7264 65.6712 88.7264 66.3329C88.7264 66.7961 88.8752 67.1848 89.173 67.4991C89.4873 67.7968 89.8678 68.045 90.3144 68.2435C90.7776 68.4254 91.4227 68.6405 92.2498 68.8886C93.3746 69.2194 94.2927 69.5503 95.004 69.8811C95.7153 70.212 96.3274 70.7082 96.8402 71.3699C97.353 72.0316 97.6094 72.9 97.6094 73.9752C97.6094 74.9016 97.3695 75.7618 96.8898 76.5558C96.4101 77.3498 95.707 77.9866 94.7807 78.4664C93.8544 78.9295 92.7543 79.1611 91.4806 79.1611ZM99.7278 72.0647C99.7278 70.6751 100.001 69.4428 100.547 68.3675C101.109 67.2923 101.862 66.4652 102.805 65.8863C103.764 65.3073 104.831 65.0178 106.005 65.0178C107.031 65.0178 107.924 65.2246 108.685 65.6381C109.463 66.0517 110.083 66.5727 110.546 67.2013V65.2411H114.045V78.9874H110.546V76.9776C110.1 77.6227 109.479 78.1603 108.685 78.5904C107.908 79.004 107.006 79.2107 105.981 79.2107C104.823 79.2107 103.764 78.913 102.805 78.3175C101.862 77.722 101.109 76.8866 100.547 75.8114C100.001 74.7196 99.7278 73.4707 99.7278 72.0647ZM110.546 72.1143C110.546 71.2706 110.381 70.5511 110.05 69.9556C109.719 69.3435 109.272 68.8803 108.71 68.566C108.148 68.2352 107.544 68.0698 106.899 68.0698C106.254 68.0698 105.658 68.2269 105.112 68.5412C104.566 68.8555 104.12 69.3187 103.772 69.9307C103.441 70.5263 103.276 71.2376 103.276 72.0647C103.276 72.8917 103.441 73.6196 103.772 74.2482C104.12 74.8602 104.566 75.3317 105.112 75.6625C105.675 75.9933 106.27 76.1588 106.899 76.1588C107.544 76.1588 108.148 76.0016 108.71 75.6873C109.272 75.3565 109.719 74.8933 110.05 74.2978C110.381 73.6858 110.546 72.9579 110.546 72.1143ZM116.544 72.0647C116.544 70.6751 116.817 69.4428 117.363 68.3675C117.925 67.2923 118.686 66.4652 119.646 65.8863C120.605 65.3073 121.672 65.0178 122.847 65.0178C123.74 65.0178 124.592 65.2163 125.402 65.6133C126.213 65.9938 126.858 66.5066 127.338 67.1517V60.6259H130.861V78.9874H127.338V76.9528C126.908 77.631 126.304 78.1769 125.526 78.5904C124.749 79.004 123.847 79.2107 122.822 79.2107C121.664 79.2107 120.605 78.913 119.646 78.3175C118.686 77.722 117.925 76.8866 117.363 75.8114C116.817 74.7196 116.544 73.4707 116.544 72.0647ZM127.363 72.1143C127.363 71.2706 127.197 70.5511 126.866 69.9556C126.536 69.3435 126.089 68.8803 125.526 68.566C124.964 68.2352 124.36 68.0698 123.715 68.0698C123.07 68.0698 122.475 68.2269 121.929 68.5412C121.383 68.8555 120.936 69.3187 120.589 69.9307C120.258 70.5263 120.092 71.2376 120.092 72.0647C120.092 72.8917 120.258 73.6196 120.589 74.2482C120.936 74.8602 121.383 75.3317 121.929 75.6625C122.491 75.9933 123.087 76.1588 123.715 76.1588C124.36 76.1588 124.964 76.0016 125.526 75.6873C126.089 75.3565 126.536 74.8933 126.866 74.2978C127.197 73.6858 127.363 72.9579 127.363 72.1143Z" fill="white"/>
</g>
<defs>
<filter id="filter0_i" x="0.719666" y="0.175781" width="203.849" height="116.364" filterUnits="userSpaceOnUse" color-interpolation-filters="sRGB">
<feFlood flood-opacity="0" result="BackgroundImageFix"/>
<feBlend mode="normal" in="SourceGraphic" in2="BackgroundImageFix" result="shape"/>
<feColorMatrix in="SourceAlpha" type="matrix" values="0 0 0 0 0 0 0 0 0 0 0 0 0 0 0 0 0 0 127 0" result="hardAlpha"/>
<feOffset dx="1.69874" dy="3.39749"/>
<feGaussianBlur stdDeviation="8.49372"/>
<feComposite in2="hardAlpha" operator="arithmetic" k2="-1" k3="1"/>
<feColorMatrix type="matrix" values="0 0 0 0 0.468962 0 0 0 0 0.338642 0 0 0 0 0.516975 0 0 0 1 0"/>
<feBlend mode="normal" in2="shape" result="effect1_innerShadow"/>
</filter>
</defs>
</svg>
