<svg width="203" height="113" viewBox="0 0 203 113" fill="none" xmlns="http://www.w3.org/2000/svg">
<g filter="url(#filter0_i)">
<circle cx="42.5439" cy="70.4979" r="42.4686" fill="#302C47"/>
<circle cx="107.946" cy="42.4686" r="42.4686" fill="#302C47"/>
<circle cx="159.757" cy="70.4979" r="42.4686" fill="#302C47"/>
<rect x="38.2971" y="53.5105" width="125.707" height="59.4561" fill="#302C47"/>
<path d="M89.3247 61.4924V64.2963H84.7095V78.8118H81.2357V64.2963H76.6205V61.4924H89.3247ZM93.621 63.4278C93.0089 63.4278 92.4961 63.2376 92.0826 62.8571C91.6856 62.4601 91.4871 61.9721 91.4871 61.3932C91.4871 60.8142 91.6856 60.3345 92.0826 59.954C92.4961 59.557 93.0089 59.3585 93.621 59.3585C94.233 59.3585 94.7375 59.557 95.1345 59.954C95.5481 60.3345 95.7549 60.8142 95.7549 61.3932C95.7549 61.9721 95.5481 62.4601 95.1345 62.8571C94.7375 63.2376 94.233 63.4278 93.621 63.4278ZM95.333 65.0655V78.8118H91.8593V65.0655H95.333ZM102.239 67.1994C102.686 66.4715 103.265 65.9008 103.976 65.4873C104.704 65.0737 105.531 64.867 106.457 64.867V68.5144H105.539C104.447 68.5144 103.62 68.7708 103.058 69.2836C102.512 69.7964 102.239 70.6897 102.239 71.9634V78.8118H98.7652V65.0655H102.239V67.1994ZM121.576 71.6409C121.576 72.1371 121.542 72.5838 121.476 72.9808H111.427C111.51 73.9733 111.857 74.7507 112.469 75.3132C113.081 75.8756 113.834 76.1568 114.727 76.1568C116.017 76.1568 116.936 75.6026 117.481 74.4943H121.228C120.831 75.8177 120.07 76.9095 118.945 77.7696C117.821 78.6133 116.439 79.0351 114.802 79.0351C113.478 79.0351 112.287 78.7456 111.229 78.1666C110.186 77.5711 109.368 76.7358 108.772 75.6605C108.193 74.5853 107.904 73.3447 107.904 71.9386C107.904 70.516 108.193 69.2671 108.772 68.1919C109.351 67.1167 110.162 66.2896 111.204 65.7106C112.246 65.1316 113.445 64.8422 114.802 64.8422C116.108 64.8422 117.275 65.1234 118.3 65.6858C119.342 66.2482 120.145 67.0505 120.707 68.0926C121.286 69.1182 121.576 70.301 121.576 71.6409ZM117.978 70.6484C117.961 69.7551 117.639 69.0438 117.01 68.5144C116.381 67.9686 115.612 67.6956 114.702 67.6956C113.842 67.6956 113.114 67.9603 112.519 68.4896C111.94 69.0024 111.584 69.722 111.452 70.6484H117.978ZM123.218 71.889C123.218 70.4995 123.491 69.2671 124.037 68.1919C124.599 67.1167 125.36 66.2896 126.319 65.7106C127.279 65.1316 128.346 64.8422 129.52 64.8422C130.414 64.8422 131.265 65.0407 132.076 65.4377C132.887 65.8181 133.532 66.3309 134.011 66.9761V60.4503H137.535V78.8118H134.011V76.7771C133.581 77.4553 132.978 78.0012 132.2 78.4148C131.423 78.8283 130.521 79.0351 129.495 79.0351C128.338 79.0351 127.279 78.7373 126.319 78.1418C125.36 77.5463 124.599 76.7109 124.037 75.6357C123.491 74.544 123.218 73.2951 123.218 71.889ZM134.036 71.9386C134.036 71.095 133.871 70.3754 133.54 69.7799C133.209 69.1679 132.762 68.7047 132.2 68.3904C131.638 68.0595 131.034 67.8941 130.389 67.8941C129.744 67.8941 129.148 68.0513 128.602 68.3656C128.056 68.6799 127.61 69.143 127.262 69.7551C126.931 70.3506 126.766 71.0619 126.766 71.889C126.766 72.7161 126.931 73.4439 127.262 74.0725C127.61 74.6846 128.056 75.156 128.602 75.4869C129.165 75.8177 129.76 75.9831 130.389 75.9831C131.034 75.9831 131.638 75.826 132.2 75.5117C132.762 75.1808 133.209 74.7177 133.54 74.1221C133.871 73.5101 134.036 72.7823 134.036 71.9386Z" fill="white"/>
</g>
<defs>
<filter id="filter0_i" x="0.0753174" y="0" width="203.849" height="116.364" filterUnits="userSpaceOnUse" color-interpolation-filters="sRGB">
<feFlood flood-opacity="0" result="BackgroundImageFix"/>
<feBlend mode="normal" in="SourceGraphic" in2="BackgroundImageFix" result="shape"/>
<feColorMatrix in="SourceAlpha" type="matrix" values="0 0 0 0 0 0 0 0 0 0 0 0 0 0 0 0 0 0 127 0" result="hardAlpha"/>
<feOffset dx="1.69874" dy="3.39749"/>
<feGaussianBlur stdDeviation="8.49372"/>
<feComposite in2="hardAlpha" operator="arithmetic" k2="-1" k3="1"/>
<feColorMatrix type="matrix" values="0 0 0 0 0.468962 0 0 0 0 0.338642 0 0 0 0 0.516975 0 0 0 1 0"/>
<feBlend mode="normal" in2="shape" result="effect1_innerShadow"/>
</filter>
</defs>
</svg>
